<svg xmlns="http://www.w3.org/2000/svg" xmlns:xlink="http://www.w3.org/1999/xlink" viewBox="0,0,256,256" width="50px" height="50px"><g fill="#ffffff" fill-rule="nonzero" stroke="none" stroke-width="1" stroke-linecap="butt" stroke-linejoin="miter" stroke-miterlimit="10" stroke-dasharray="" stroke-dashoffset="0" font-family="none" font-weight="none" font-size="none" text-anchor="none" style="mix-blend-mode: normal"><g transform="scale(5.12,5.12)"><path d="M16.90625,3.96875c-0.04297,0.00781 -0.08594,0.01953 -0.125,0.03125c-0.46484,0.10547 -0.79297,0.52344 -0.78125,1v5c-0.00391,0.35938 0.18359,0.69531 0.49609,0.87891c0.3125,0.17969 0.69531,0.17969 1.00781,0c0.3125,-0.18359 0.5,-0.51953 0.49609,-0.87891v-5c0.01172,-0.28906 -0.10547,-0.56641 -0.3125,-0.76172c-0.21094,-0.19922 -0.49609,-0.29687 -0.78125,-0.26953zM5.59375,8.65625c-0.04297,0.00781 -0.08594,0.01953 -0.125,0.03125c-0.375,0.06641 -0.67578,0.33984 -0.78125,0.70313c-0.10547,0.36719 0.00391,0.75781 0.28125,1.01563l3.53125,3.53125c0.39844,0.39844 1.03906,0.39844 1.4375,0c0.39844,-0.39844 0.39844,-1.03906 0,-1.4375l-3.53125,-3.53125c-0.20703,-0.22266 -0.50781,-0.33594 -0.8125,-0.3125zM28.21875,8.65625c-0.04297,0.00781 -0.08594,0.01953 -0.125,0.03125c-0.19141,0.04297 -0.36328,0.14063 -0.5,0.28125l-3.53125,3.53125c-0.39844,0.39844 -0.39844,1.03906 0,1.4375c0.39844,0.39844 1.03906,0.39844 1.4375,0l3.53125,-3.53125c0.34375,-0.28906 0.45313,-0.77734 0.26172,-1.18359c-0.19141,-0.41016 -0.62891,-0.64062 -1.07422,-0.56641zM17,13c-4.42187,0 -8,3.57813 -8,8c0,3.06641 1.71875,5.71875 4.25,7.0625c1.00391,-1.14453 2.27734,-2.04297 3.75,-2.5625c0.16797,-4.20312 2.51563,-7.83594 5.9375,-9.84375c-1.46484,-1.62891 -3.57422,-2.65625 -5.9375,-2.65625zM29,16c-5.51562,0 -10,4.48438 -10,10c0,0.35156 0.02344,0.70703 0.0625,1.0625c-3.41797,0.46094 -6.0625,3.39844 -6.0625,6.9375c0,3.85938 3.14063,7 7,7h21c4.96484,0 9,-4.03516 9,-9c0,-4.96484 -4.03516,-9 -9,-9c-0.8125,0 -1.60547,0.10156 -2.375,0.3125c-1.18359,-4.30469 -5.05859,-7.3125 -9.625,-7.3125zM0.8125,20c-0.55078,0.05078 -0.95703,0.54297 -0.90625,1.09375c0.05078,0.55078 0.54297,0.95703 1.09375,0.90625h5c0.35938,0.00391 0.69531,-0.18359 0.87891,-0.49609c0.17969,-0.3125 0.17969,-0.69531 0,-1.00781c-0.18359,-0.3125 -0.51953,-0.5 -0.87891,-0.49609h-5c-0.03125,0 -0.0625,0 -0.09375,0c-0.03125,0 -0.0625,0 -0.09375,0zM9.125,27.75c-0.04297,0.00781 -0.08594,0.01953 -0.125,0.03125c-0.19141,0.04297 -0.36328,0.14063 -0.5,0.28125l-3.53125,3.53125c-0.39844,0.39844 -0.39844,1.03906 0,1.4375c0.39844,0.39844 1.03906,0.39844 1.4375,0l3.53125,-3.5625c0.3125,-0.29687 0.40234,-0.76172 0.21875,-1.15234c-0.1875,-0.39453 -0.60156,-0.62109 -1.03125,-0.56641z"></path></g></g></svg>