<svg xmlns="http://www.w3.org/2000/svg" xmlns:xlink="http://www.w3.org/1999/xlink" viewBox="0,0,256,256" width="50px" height="50px"><g fill="#ffffff" fill-rule="nonzero" stroke="none" stroke-width="1" stroke-linecap="butt" stroke-linejoin="miter" stroke-miterlimit="10" stroke-dasharray="" stroke-dashoffset="0" font-family="none" font-weight="none" font-size="none" text-anchor="none" style="mix-blend-mode: normal"><g transform="scale(5.12,5.12)"><path d="M37,4c0,0 -4.21593,-0.09171 -7.23047,2.20508c-2.69269,2.05174 -2.76242,5.79773 -2.76172,7.42187c-0.46904,0.53302 -1.66467,2.04618 -2.42969,4.55078c-0.3912,-0.89489 -0.80431,-1.59153 -1.18359,-2.10547l0.06055,-0.16211c0.00715,-0.01997 0.01366,-0.04016 0.01953,-0.06055c0.22348,-0.75107 0.40039,-1.77426 0.40039,-3.16211c0,-1.1103 -0.24816,-2.31072 -1.01562,-3.31641c-1.7236,-2.25804 -4.19802,-3.06106 -6.24219,-3.29883c-2.04416,-0.23777 -3.6582,0.08984 -3.6582,0.08984c-0.40424,0.07644 -0.72044,0.39263 -0.79687,0.79688c0,0 -1.30708,6.45319 3.20899,9.90039c1.00569,0.76747 2.2061,1.01563 3.31641,1.01563c1.38784,0 2.41104,-0.17691 3.16211,-0.40039c0.02038,-0.00587 0.04058,-0.01238 0.06055,-0.01953l0.01172,-0.00391c0.73723,1.05981 1.71075,3.07354 1.99219,6.54883h-19.91406v2h20h2h20v-2h-20v-2c0,-3.93798 1.89185,-6.36013 2.46289,-7.00977c1.66637,-0.00242 5.31301,-0.11001 7.33203,-2.75976c2.29679,-3.01454 2.20508,-7.23047 2.20508,-7.23047c-0.00006,-0.55226 -0.44774,-0.99994 -1,-1zM35.86328,6.13672c-0.11244,1.19248 -0.40074,3.2324 -1.6582,4.88281c-1.10364,1.44841 -3.45719,1.76237 -5.08594,1.86133c0.09896,-1.62874 0.41292,-3.9823 1.86133,-5.08594c1.65042,-1.25746 3.69033,-1.54577 4.88281,-1.6582zM15.53711,8.02734c0.229,0.00861 0.49194,0.02882 0.79883,0.06445c1.66409,0.19323 3.64819,0.80822 4.93359,2.49219c0.42453,0.55631 0.60547,1.28982 0.60547,2.10352c0,1.2137 -0.15094,2.02532 -0.31445,2.57813l-0.08008,0.21484l-0.21484,0.08008c-0.5528,0.16351 -1.36442,0.31445 -2.57812,0.31445c-0.8137,0 -1.54721,-0.18093 -2.10352,-0.60547c-2.92616,-2.23359 -2.59687,-6.0503 -2.4668,-7.15234c0.35087,-0.04141 0.73292,-0.11569 1.41992,-0.08984zM5,28c-0.55228,0 -1,0.44772 -1,1c0,0.55228 0.44772,1 1,1c0.55228,0 1,-0.44772 1,-1c0,-0.55228 -0.44772,-1 -1,-1zM13,28c-0.55228,0 -1,0.44772 -1,1c0,0.55228 0.44772,1 1,1c0.55228,0 1,-0.44772 1,-1c0,-0.55228 -0.44772,-1 -1,-1zM21,28c-0.55228,0 -1,0.44772 -1,1c0,0.55228 0.44772,1 1,1c0.55228,0 1,-0.44772 1,-1c0,-0.55228 -0.44772,-1 -1,-1zM29,28c-0.55228,0 -1,0.44772 -1,1c0,0.55228 0.44772,1 1,1c0.55228,0 1,-0.44772 1,-1c0,-0.55228 -0.44772,-1 -1,-1zM37,28c-0.55228,0 -1,0.44772 -1,1c0,0.55228 0.44772,1 1,1c0.55228,0 1,-0.44772 1,-1c0,-0.55228 -0.44772,-1 -1,-1zM45,28c-0.55228,0 -1,0.44772 -1,1c0,0.55228 0.44772,1 1,1c0.55228,0 1,-0.44772 1,-1c0,-0.55228 -0.44772,-1 -1,-1zM9,32c-0.55228,0 -1,0.44772 -1,1c0,0.55228 0.44772,1 1,1c0.55228,0 1,-0.44772 1,-1c0,-0.55228 -0.44772,-1 -1,-1zM17,32c-0.55228,0 -1,0.44772 -1,1c0,0.55228 0.44772,1 1,1c0.55228,0 1,-0.44772 1,-1c0,-0.55228 -0.44772,-1 -1,-1zM25,32c-0.55228,0 -1,0.44772 -1,1c0,0.55228 0.44772,1 1,1c0.55228,0 1,-0.44772 1,-1c0,-0.55228 -0.44772,-1 -1,-1zM33,32c-0.55228,0 -1,0.44772 -1,1c0,0.55228 0.44772,1 1,1c0.55228,0 1,-0.44772 1,-1c0,-0.55228 -0.44772,-1 -1,-1zM41,32c-0.55228,0 -1,0.44772 -1,1c0,0.55228 0.44772,1 1,1c0.55228,0 1,-0.44772 1,-1c0,-0.55228 -0.44772,-1 -1,-1zM5,36c-0.55228,0 -1,0.44772 -1,1c0,0.55228 0.44772,1 1,1c0.55228,0 1,-0.44772 1,-1c0,-0.55228 -0.44772,-1 -1,-1zM13,36c-0.55228,0 -1,0.44772 -1,1c0,0.55228 0.44772,1 1,1c0.55228,0 1,-0.44772 1,-1c0,-0.55228 -0.44772,-1 -1,-1zM21,36c-0.55228,0 -1,0.44772 -1,1c0,0.55228 0.44772,1 1,1c0.55228,0 1,-0.44772 1,-1c0,-0.55228 -0.44772,-1 -1,-1zM29,36c-0.55228,0 -1,0.44772 -1,1c0,0.55228 0.44772,1 1,1c0.55228,0 1,-0.44772 1,-1c0,-0.55228 -0.44772,-1 -1,-1zM37,36c-0.55228,0 -1,0.44772 -1,1c0,0.55228 0.44772,1 1,1c0.55228,0 1,-0.44772 1,-1c0,-0.55228 -0.44772,-1 -1,-1zM45,36c-0.55228,0 -1,0.44772 -1,1c0,0.55228 0.44772,1 1,1c0.55228,0 1,-0.44772 1,-1c0,-0.55228 -0.44772,-1 -1,-1zM9,40c-0.55228,0 -1,0.44772 -1,1c0,0.55228 0.44772,1 1,1c0.55228,0 1,-0.44772 1,-1c0,-0.55228 -0.44772,-1 -1,-1zM17,40c-0.55228,0 -1,0.44772 -1,1c0,0.55228 0.44772,1 1,1c0.55228,0 1,-0.44772 1,-1c0,-0.55228 -0.44772,-1 -1,-1zM25,40c-0.55228,0 -1,0.44772 -1,1c0,0.55228 0.44772,1 1,1c0.55228,0 1,-0.44772 1,-1c0,-0.55228 -0.44772,-1 -1,-1zM33,40c-0.55228,0 -1,0.44772 -1,1c0,0.55228 0.44772,1 1,1c0.55228,0 1,-0.44772 1,-1c0,-0.55228 -0.44772,-1 -1,-1zM41,40c-0.55228,0 -1,0.44772 -1,1c0,0.55228 0.44772,1 1,1c0.55228,0 1,-0.44772 1,-1c0,-0.55228 -0.44772,-1 -1,-1zM5,44c-0.55228,0 -1,0.44772 -1,1c0,0.55228 0.44772,1 1,1c0.55228,0 1,-0.44772 1,-1c0,-0.55228 -0.44772,-1 -1,-1zM13,44c-0.55228,0 -1,0.44772 -1,1c0,0.55228 0.44772,1 1,1c0.55228,0 1,-0.44772 1,-1c0,-0.55228 -0.44772,-1 -1,-1zM21,44c-0.55228,0 -1,0.44772 -1,1c0,0.55228 0.44772,1 1,1c0.55228,0 1,-0.44772 1,-1c0,-0.55228 -0.44772,-1 -1,-1zM29,44c-0.55228,0 -1,0.44772 -1,1c0,0.55228 0.44772,1 1,1c0.55228,0 1,-0.44772 1,-1c0,-0.55228 -0.44772,-1 -1,-1zM37,44c-0.55228,0 -1,0.44772 -1,1c0,0.55228 0.44772,1 1,1c0.55228,0 1,-0.44772 1,-1c0,-0.55228 -0.44772,-1 -1,-1zM45,44c-0.55228,0 -1,0.44772 -1,1c0,0.55228 0.44772,1 1,1c0.55228,0 1,-0.44772 1,-1c0,-0.55228 -0.44772,-1 -1,-1z"></path></g></g></svg>