<svg xmlns="http://www.w3.org/2000/svg" xmlns:xlink="http://www.w3.org/1999/xlink" viewBox="0,0,256,256" width="50px" height="50px"><g fill="#ffffff" fill-rule="nonzero" stroke="none" stroke-width="1" stroke-linecap="butt" stroke-linejoin="miter" stroke-miterlimit="10" stroke-dasharray="" stroke-dashoffset="0" font-family="none" font-weight="none" font-size="none" text-anchor="none" style="mix-blend-mode: normal"><g transform="scale(5.12,5.12)"><path d="M28,39c-0.15234,0 -0.30469,-0.03516 -0.44141,-0.10547c-0.34375,-0.16797 -0.55859,-0.51172 -0.55859,-0.89453v-8h-22c-0.55078,0 -1,-0.44531 -1,-1v-8c0,-0.55078 0.44922,-1 1,-1h22v-8c0,-0.37891 0.21484,-0.72656 0.55859,-0.89453c0.33984,-0.16797 0.74609,-0.12891 1.05078,0.10156l17,13c0.24609,0.1875 0.39063,0.48047 0.39063,0.79297c0,0.3125 -0.14453,0.60547 -0.39453,0.79297l-17,13c-0.17578,0.13672 -0.39062,0.20703 -0.60547,0.20703z"></path></g></g></svg>