<svg xmlns="http://www.w3.org/2000/svg" xmlns:xlink="http://www.w3.org/1999/xlink" viewBox="0,0,256,256" width="64px" height="64px"><g fill="#ffffff" fill-rule="nonzero" stroke="none" stroke-width="1" stroke-linecap="butt" stroke-linejoin="miter" stroke-miterlimit="10" stroke-dasharray="" stroke-dashoffset="0" font-family="none" font-weight="none" font-size="none" text-anchor="none" style="mix-blend-mode: normal"><g><path d="M60.653,26.442c0,0 3.41,12.659 13.229,13.246c0,0 -13.107,4.525 -13.328,14.202c0,0 -2.58,-13.572 -12.932,-14.059c0,0 12.057,-1.825 13.031,-13.389z"></path><path d="M60.553,55.39c-0.713,0 -1.335,-0.506 -1.472,-1.217c-0.024,-0.124 -2.496,-12.418 -11.529,-12.844c-0.771,-0.036 -1.388,-0.65 -1.428,-1.421c-0.039,-0.77 0.511,-1.444 1.274,-1.561c0.441,-0.068 10.901,-1.816 11.762,-12.032c0.061,-0.726 0.634,-1.301 1.359,-1.367c0.723,-0.061 1.393,0.399 1.583,1.102c0.032,0.116 3.26,11.626 11.871,12.142c0.714,0.043 1.297,0.584 1.396,1.292c0.098,0.708 -0.319,1.388 -0.995,1.622c-0.121,0.043 -12.125,4.312 -12.319,12.819c-0.018,0.767 -0.61,1.396 -1.374,1.46c-0.044,0.003 -0.087,0.005 -0.128,0.005zM52.807,39.66c3.88,1.97 6.234,5.747 7.591,8.878c2.027,-4.023 5.945,-6.788 8.954,-8.429c-4.137,-1.843 -6.787,-5.652 -8.339,-8.724c-1.793,4.361 -5.273,6.87 -8.206,8.275z"></path><path d="M38.943,43.422c0,0 2.412,8.954 9.357,9.369c0,0 -9.271,3.201 -9.427,10.046c0,0 -1.825,-9.6 -9.147,-9.944c0,0 8.528,-1.291 9.217,-9.471z"></path><path d="M38.872,64.337c-0.713,0 -1.336,-0.507 -1.472,-1.22c-0.016,-0.082 -1.705,-8.442 -7.744,-8.727c-0.771,-0.036 -1.388,-0.65 -1.428,-1.421c-0.04,-0.77 0.511,-1.444 1.273,-1.561c0.296,-0.047 7.368,-1.242 7.947,-8.113c0.061,-0.726 0.635,-1.303 1.36,-1.368c0.724,-0.061 1.392,0.399 1.582,1.102v0c0.021,0.079 2.229,7.92 7.998,8.266c0.714,0.043 1.299,0.584 1.396,1.293c0.098,0.709 -0.32,1.389 -0.996,1.622c-0.081,0.028 -8.287,2.953 -8.417,8.661c-0.018,0.768 -0.611,1.397 -1.376,1.461c-0.04,0.003 -0.082,0.005 -0.123,0.005zM34.35,52.81c2.109,1.333 3.525,3.396 4.45,5.281c1.376,-2.233 3.517,-3.873 5.368,-4.974c-2.289,-1.27 -3.887,-3.352 -4.944,-5.226c-1.174,2.288 -3.017,3.878 -4.874,4.919z"></path><path d="M38.943,16.765c0,0 2.412,8.954 9.357,9.37c0,0 -9.271,3.201 -9.427,10.045c0,0 -1.825,-9.6 -9.147,-9.944c0,-0.001 8.528,-1.292 9.217,-9.471z"></path><path d="M38.872,37.68c-0.713,0 -1.336,-0.507 -1.472,-1.22c-0.016,-0.082 -1.705,-8.442 -7.744,-8.727c-0.771,-0.036 -1.388,-0.65 -1.428,-1.421c-0.04,-0.77 0.511,-1.444 1.273,-1.56c0.296,-0.047 7.368,-1.243 7.947,-8.113c0.061,-0.726 0.635,-1.303 1.36,-1.368c0.725,-0.064 1.391,0.399 1.582,1.102v0c0.021,0.079 2.229,7.92 7.998,8.265c0.715,0.042 1.299,0.584 1.396,1.293c0.098,0.709 -0.32,1.389 -0.996,1.622c-0.081,0.028 -8.287,2.953 -8.417,8.662c-0.018,0.767 -0.611,1.397 -1.376,1.461c-0.04,0.002 -0.082,0.004 -0.123,0.004zM34.35,26.152c2.108,1.333 3.525,3.395 4.45,5.281c1.377,-2.233 3.517,-3.874 5.368,-4.975c-2.289,-1.269 -3.887,-3.351 -4.944,-5.225c-1.174,2.288 -3.018,3.877 -4.874,4.919z"></path><path d="M90.166,165.178c5.151,-46.739 8.782,-107.308 24.024,-107.308c15.759,0 35.441,60.286 35.441,107.308c0,63.156 -31.415,74.058 -48.616,74.058c-17.202,0 -16.134,-26.099 -10.849,-74.058z"></path><path d="M101.015,240.735c-4.092,0 -7.411,-1.389 -9.865,-4.128c-8.567,-9.564 -6.43,-35.706 -2.474,-71.594c0.728,-6.6 1.44,-13.628 2.129,-20.425c4.599,-45.368 8.943,-88.22 23.386,-88.22c17.836,0 36.94,63.862 36.94,108.809c0,70.11 -38.36,75.558 -50.116,75.558zM114.19,59.369c-11.732,0 -16.539,47.42 -20.401,85.523c-0.69,6.803 -1.403,13.838 -2.132,20.45v0c-3.744,33.973 -5.995,60.645 1.727,69.264c1.886,2.106 4.382,3.13 7.63,3.13c11.053,0 47.116,-5.232 47.116,-72.558c0,-22.002 -4.387,-48.477 -11.735,-70.819c-7.098,-21.583 -15.606,-34.99 -22.205,-34.99zM90.166,165.178h0.01z"></path><path d="M69.758,150.812c-11.403,29.472 -16.734,45.82 -5.217,49.144c12.261,3.538 37.153,-10.155 46.825,-43.672c9.672,-33.517 11.103,-79.653 -0.13,-82.895c-10.152,-2.929 -24.497,33.704 -36.667,65.042z"></path><path d="M68.795,202.021c-1.661,0 -3.228,-0.208 -4.669,-0.624c-2.934,-0.847 -5.034,-2.512 -6.242,-4.948c-3.863,-7.791 1.639,-23.343 10.475,-46.179c0.298,-0.772 1.166,-1.155 1.94,-0.858c0.772,0.3 1.156,1.168 0.857,1.94c-8.286,21.415 -13.895,37.09 -10.585,43.764c0.831,1.675 2.265,2.786 4.386,3.398c10.523,3.037 35.24,-8.937 44.967,-42.646c10.743,-37.229 9.578,-78.532 0.896,-81.038c-8.95,-2.576 -24.534,37.574 -34.853,64.144c-0.3,0.773 -1.169,1.156 -1.941,0.855c-0.772,-0.3 -1.155,-1.169 -0.855,-1.941c15.754,-40.566 27.737,-69.032 38.481,-65.941c13.49,3.893 10,54.099 1.155,84.753c-8.682,30.084 -29.789,45.32 -44.012,45.321z"></path><path d="M194.222,165.178c-5.151,-46.739 -8.782,-107.308 -24.024,-107.308c-15.759,0 -35.441,60.286 -35.441,107.308c0,63.156 31.415,74.058 48.616,74.058c17.202,0 16.134,-26.099 10.849,-74.058z"></path><path d="M183.373,240.735c-11.757,0 -50.116,-5.448 -50.116,-75.558c0,-44.946 19.104,-108.809 36.94,-108.809c14.443,0 18.787,42.849 23.386,88.213c0.689,6.799 1.402,13.829 2.13,20.432v0c3.955,35.888 6.094,62.029 -2.475,71.594c-2.454,2.74 -5.772,4.128 -9.865,4.128zM170.197,59.369c-6.598,0 -15.107,13.407 -22.205,34.989c-7.349,22.343 -11.735,48.817 -11.735,70.819c0,27.312 5.871,47.393 17.449,59.684c10.552,11.201 23.116,12.874 29.667,12.874c3.248,0 5.744,-1.023 7.631,-3.13c7.722,-8.619 5.472,-35.291 1.727,-69.264v0c-0.728,-6.614 -1.442,-13.651 -2.132,-20.457c-3.863,-38.099 -8.669,-85.515 -20.402,-85.515z"></path><path d="M200.094,113.936c-9.554,-23.085 -19.404,-42.722 -26.942,-40.547c-11.233,3.242 -9.801,49.378 -0.13,82.895c9.672,33.517 34.563,47.21 46.824,43.672c12.261,-3.538 5.428,-21.837 -7.5,-55.02c-2.344,-6.017 -4.792,-12.366 -7.292,-18.697z"></path><path d="M215.593,202.021c-14.223,0.002 -35.329,-15.235 -44.012,-45.321c-8.845,-30.654 -12.334,-80.859 1.155,-84.753c7.367,-2.118 15.688,9.875 28.743,41.416c0.317,0.765 -0.047,1.643 -0.812,1.959c-0.766,0.321 -1.642,-0.047 -1.959,-0.813c-11.515,-27.819 -19.974,-41.181 -25.14,-39.68c-8.681,2.505 -9.847,43.809 0.896,81.038c9.729,33.711 34.454,45.686 44.967,42.646c2.124,-0.612 3.559,-1.727 4.39,-3.405c3.615,-7.313 -3.659,-25.986 -12.87,-49.628l-2.167,-5.572c-1.671,-4.304 -3.384,-8.716 -5.123,-13.119c-0.304,-0.771 0.074,-1.642 0.845,-1.946c0.77,-0.303 1.641,0.074 1.946,0.845c1.74,4.408 3.456,8.826 5.129,13.135l2.165,5.568c10.836,27.813 16.771,43.944 12.765,52.048c-1.208,2.442 -3.31,4.11 -6.247,4.958c-1.443,0.417 -3.011,0.623 -4.671,0.624z"></path><path d="M126.872,45.648h-18.408c-0.368,0 -0.723,-0.135 -0.997,-0.38l-30.243,-26.913c-0.619,-0.55 -0.674,-1.498 -0.124,-2.117c0.551,-0.619 1.499,-0.675 2.118,-0.123l29.816,26.533h17.837c0.829,0 1.5,0.672 1.5,1.5c0.001,0.829 -0.671,1.5 -1.499,1.5z"></path><path d="M68.359,92.074c-0.378,0 -0.756,-0.142 -1.048,-0.427c-0.592,-0.579 -0.604,-1.529 -0.024,-2.121l29.585,-30.277c0.282,-0.289 0.669,-0.452 1.073,-0.452h21.039c0.829,0 1.5,0.672 1.5,1.5c0,0.828 -0.671,1.5 -1.5,1.5h-20.409l-29.143,29.825c-0.294,0.301 -0.683,0.452 -1.073,0.452z"></path><path d="M142.029,39.548c-0.465,0 -0.923,-0.216 -1.217,-0.621l-6.981,-9.652l-32.409,-10.613c-0.787,-0.258 -1.216,-1.105 -0.958,-1.892c0.258,-0.787 1.106,-1.217 1.892,-0.959l32.872,10.766c0.301,0.099 0.563,0.29 0.749,0.547l7.268,10.047c0.485,0.671 0.335,1.608 -0.337,2.095c-0.266,0.189 -0.574,0.282 -0.879,0.282z"></path><path d="M175.925,45.648h-18.408c-0.828,0 -1.5,-0.672 -1.5,-1.5c0,-0.828 0.672,-1.5 1.5,-1.5h17.838l29.815,-26.533c0.62,-0.552 1.567,-0.495 2.117,0.123c0.551,0.619 0.496,1.566 -0.123,2.117l-30.242,26.913c-0.275,0.246 -0.63,0.38 -0.997,0.38z"></path><path d="M216.028,92.074c-0.39,0 -0.779,-0.151 -1.073,-0.452l-29.143,-29.825h-20.407c-0.828,0 -1.5,-0.672 -1.5,-1.5c0,-0.828 0.672,-1.5 1.5,-1.5h21.039c0.404,0 0.791,0.163 1.073,0.452l29.584,30.277c0.578,0.592 0.567,1.542 -0.025,2.121c-0.291,0.286 -0.67,0.427 -1.048,0.427z"></path><path d="M142.358,39.548c-0.305,0 -0.612,-0.093 -0.878,-0.284c-0.672,-0.486 -0.822,-1.424 -0.337,-2.095l7.268,-10.047c0.187,-0.257 0.448,-0.448 0.749,-0.547l32.872,-10.766c0.791,-0.259 1.635,0.173 1.893,0.959c0.258,0.787 -0.172,1.635 -0.959,1.892l-32.409,10.613l-6.981,9.652c-0.295,0.407 -0.753,0.623 -1.218,0.623z"></path><path d="M182.024,82.645c0,30.83 -20.34,76.09 -39.83,76.09c-20.15,0 -39.83,-45.26 -39.83,-76.09c0,-13.04 3.19,-23.73 8.54,-31.73c7.29,-10.93 18.59,-16.83 31.29,-16.83c12.7,0 24,5.9 31.29,16.83c5.35,8 8.54,18.691 8.54,31.73z"></path><path d="M142.194,160.235c-9.799,0 -20.303,-9.959 -28.818,-27.323c-7.717,-15.737 -12.512,-34.998 -12.512,-50.267c0,-12.702 3.041,-23.963 8.793,-32.564c7.524,-11.281 19.08,-17.495 32.537,-17.495c13.457,0 25.013,6.214 32.538,17.497c5.751,8.601 8.792,19.861 8.792,32.563c0,15.133 -4.891,34.396 -12.763,50.272c-8.608,17.36 -19.02,27.317 -28.567,27.317zM142.194,35.586c-12.422,0 -23.091,5.739 -30.042,16.161c-5.422,8.108 -8.288,18.792 -8.288,30.898c0,30.812 19.824,74.59 38.33,74.59c18.14,0 38.33,-44.46 38.33,-74.59c0,-12.105 -2.865,-22.789 -8.287,-30.896c-6.952,-10.424 -17.621,-16.163 -30.043,-16.163z"></path><path d="M173.484,50.915c-7.29,10.92 -18.59,16.82 -31.29,16.82c-12.7,0 -24,-5.9 -31.29,-16.82c7.29,-10.93 18.59,-16.83 31.29,-16.83c12.7,0 24,5.901 31.29,16.83z"></path><path d="M142.194,69.235c-13.455,0 -25.01,-6.211 -32.538,-17.487c-0.336,-0.504 -0.336,-1.161 0,-1.665c7.525,-11.283 19.081,-17.497 32.538,-17.497c13.457,0 25.013,6.214 32.538,17.497c0.336,0.504 0.336,1.161 0,1.665c-7.528,11.276 -19.084,17.487 -32.538,17.487zM112.723,50.915c6.959,9.889 17.387,15.32 29.472,15.32c12.085,0 22.513,-5.432 29.472,-15.32c-6.957,-9.895 -17.385,-15.329 -29.472,-15.329c-12.088,0 -22.515,5.435 -29.472,15.329z"></path><path d="M180.52,82.65c0,30.13 -20.19,74.59 -38.33,74.59c-2.3,0 -4.61,-0.67 -6.91,-1.91c16.04,-11.08 30.24,-46.92 30.24,-72.68c0,-7.12 -0.95,-13.53 -2.68,-19.19c4,-2.51 7.56,-5.81 10.57,-9.84c4.66,7.85 7.11,17.82 7.11,29.03z"></path><path d="M171.67,50.92c-2.77,3.93 -6.08,7.15 -9.83,9.6c-1.31,-3.54 -2.94,-6.74 -4.86,-9.6c-4.95,-7.42 -11.76,-12.53 -19.59,-15.04c1.57,-0.19 3.17,-0.29 4.8,-0.29c12.09,0 22.52,5.43 29.48,15.33z"></path><path d="M134.926,36.066c0,2.189 -1.775,3.964 -3.964,3.964c-2.189,0 -3.964,-1.775 -3.964,-3.964c0,-2.189 1.775,-3.964 3.964,-3.964c2.189,0 3.964,1.774 3.964,3.964z"></path><path d="M157.39,36.066c0,2.189 -1.775,3.964 -3.964,3.964c-2.189,0 -3.964,-1.775 -3.964,-3.964c0,-2.189 1.775,-3.964 3.964,-3.964c2.19,0 3.964,1.774 3.964,3.964z"></path></g></g></svg>